<svg width="512" height="512" viewBox="0 0 512 512" fill="none" xmlns="http://www.w3.org/2000/svg">
  <defs>
    <clipPath id="circle-clip">
      <circle cx="256" cy="256" r="224"/>
    </clipPath>
  </defs>

  <circle cx="256" cy="256" r="224" fill="#087CD9"/>

  <g clip-path="url(#circle-clip)">
    <rect x="-44" y="46" width="264" height="178" rx="18" fill="#FFFFFF"/>
    <rect x="292" y="46" width="264" height="178" rx="18" fill="#FFFFFF"/>
    <rect x="-44" y="288" width="264" height="178" rx="18" fill="#FFFFFF"/>
    <rect x="292" y="288" width="264" height="178" rx="18" fill="#FFFFFF"/>
  </g>

  <path
    fill="#E8F5FF"
    fill-opacity="0.62"
    fill-rule="evenodd"
    d="M256 27a229 229 0 1 0 0 458 229 229 0 0 0 0-458Zm0 10a219 219 0 1 1 0 438 219 219 0 0 1 0-438Z"/>
</svg>
